<svg width="24" height="26" viewBox="0 0 24 26" fill="none" xmlns="http://www.w3.org/2000/svg">
<g id="Notificaciones">
<path id="Vector" d="M10.3157 25.5C11.6696 25.5 12.7773 24.3923 12.7773 23.0385H7.85418C7.85418 24.3923 8.94956 25.5 10.3157 25.5ZM17.7003 18.1154V11.9615C17.7003 8.18308 15.6819 5.02 12.1619 4.18308V3.34615C12.1619 2.32462 11.3373 1.5 10.3157 1.5C9.29418 1.5 8.46956 2.32462 8.46956 3.34615V4.18308C4.93726 5.02 2.9311 8.17077 2.9311 11.9615V18.1154L1.34341 19.7031C0.568026 20.4785 1.10956 21.8077 2.20495 21.8077H18.4142C19.5096 21.8077 20.0634 20.4785 19.288 19.7031L17.7003 18.1154Z" fill="#F9F9F9"/>
<circle id="Ellipse 1" cx="17.8252" cy="6.5" r="5" fill="#E20D18" stroke="#1F2023" stroke-width="2"/>
</g>
</svg>
