<svg width="227" height="80" viewBox="0 0 227 80" fill="none" xmlns="http://www.w3.org/2000/svg">
<path d="M40.0117 76.9822V61.1123H45.9985C47.0559 61.1123 47.8531 61.1611 48.4144 61.2669C49.1952 61.397 49.846 61.641 50.3747 62.0071C50.9034 62.3731 51.3264 62.8856 51.6436 63.5363C51.9609 64.1952 52.1236 64.9191 52.1236 65.7C52.1236 67.0503 51.6925 68.1891 50.8384 69.1245C49.9761 70.0599 48.4306 70.5236 46.1856 70.5236H42.1185V76.974H40.0199L40.0117 76.9822ZM42.1103 68.6527H46.21C47.5684 68.6527 48.5282 68.4006 49.0976 67.8962C49.667 67.3919 49.9517 66.6761 49.9517 65.7651C49.9517 65.0981 49.7809 64.5368 49.4474 64.0569C49.1139 63.5851 48.6665 63.2679 48.1215 63.1215C47.7718 63.032 47.1129 62.9832 46.1612 62.9832H42.1022V68.6527H42.1103Z" fill="#F9F9F9"/>
<path d="M62.0882 76.9821V75.2902C61.1935 76.5916 59.9733 77.2424 58.436 77.2424C57.7608 77.2424 57.1264 77.1122 56.5326 76.8519C55.9469 76.5916 55.5077 76.2663 55.223 75.8677C54.9383 75.4773 54.7349 74.9892 54.621 74.4198C54.5397 74.0375 54.499 73.4274 54.499 72.5977V65.4722H56.4512V71.8494C56.4512 72.8662 56.4919 73.5494 56.5733 73.9074C56.6953 74.4198 56.9556 74.8184 57.3541 75.1112C57.7527 75.404 58.2408 75.5505 58.8264 75.5505C59.4121 75.5505 59.9571 75.404 60.4695 75.1031C60.982 74.8021 61.348 74.3954 61.5595 73.8829C61.771 73.3624 61.8768 72.614 61.8768 71.6379V65.4803H63.829V76.9821H62.0882Z" fill="#F9F9F9"/>
<path d="M66.8867 76.9823V65.4805H68.6437V67.1155C69.4897 65.8547 70.7098 65.2202 72.3041 65.2202C72.9955 65.2202 73.63 65.3422 74.2156 65.5944C74.8013 65.8384 75.2324 66.1719 75.5171 66.5705C75.8018 66.9691 76.0052 67.4571 76.1272 68.0103C76.2004 68.3682 76.2329 69.0026 76.2329 69.9055V76.9742H74.2807V69.9787C74.2807 69.1816 74.2075 68.5878 74.053 68.1973C73.8984 67.8069 73.63 67.4897 73.2477 67.2538C72.8572 67.0179 72.4098 66.904 71.8893 66.904C71.0596 66.904 70.3438 67.1643 69.7418 67.693C69.1399 68.2217 68.8389 69.2223 68.8389 70.6945V76.9742H66.8867V76.9823Z" fill="#F9F9F9"/>
<path d="M83.4731 75.2414L83.7578 76.9659C83.2128 77.0798 82.7166 77.1367 82.2855 77.1367C81.5778 77.1367 81.0328 77.0228 80.6424 76.8032C80.2519 76.5836 79.9754 76.2826 79.8208 75.9166C79.6663 75.5505 79.5849 74.7859 79.5849 73.6146V67.0015H78.1533V65.4885H79.5849V62.6415L81.5209 61.4702V65.4885H83.4812V67.0015H81.5209V73.7285C81.5209 74.2816 81.5534 74.6395 81.6266 74.8022C81.6917 74.9567 81.8056 75.0869 81.9601 75.1845C82.1147 75.274 82.3343 75.3228 82.6271 75.3228C82.8468 75.3228 83.1315 75.2984 83.4812 75.2496L83.4731 75.2414Z" fill="#F9F9F9"/>
<path d="M84.6523 71.2314C84.6523 69.1002 85.2461 67.5222 86.4256 66.4973C87.418 65.6432 88.6218 65.2202 90.0453 65.2202C91.6234 65.2202 92.9167 65.7408 93.9254 66.7738C94.9259 67.8069 95.4302 69.2385 95.4302 71.0687C95.4302 72.5491 95.2106 73.7123 94.7632 74.5583C94.3239 75.4043 93.6732 76.0631 92.8272 76.5349C91.9813 77.0067 91.054 77.2426 90.0535 77.2426C88.4429 77.2426 87.1414 76.7301 86.149 75.6971C85.1567 74.664 84.6605 73.1755 84.6605 71.2395L84.6523 71.2314ZM86.6534 71.2314C86.6534 72.7037 86.9706 73.8099 87.6132 74.542C88.2558 75.2741 89.0611 75.6401 90.0372 75.6401C91.0133 75.6401 91.8105 75.2741 92.4531 74.5339C93.0957 73.7937 93.4129 72.6793 93.4129 71.1663C93.4129 69.7428 93.0875 68.6691 92.4449 67.937C91.7942 67.205 90.997 66.8389 90.0372 66.8389C89.0774 66.8389 88.2558 67.205 87.6132 67.9289C86.9706 68.6529 86.6534 69.7591 86.6534 71.2314Z" fill="#F9F9F9"/>
<path d="M111.333 76.9822V75.5343C110.601 76.6731 109.535 77.2425 108.12 77.2425C107.201 77.2425 106.363 76.9903 105.59 76.486C104.825 75.9817 104.223 75.274 103.8 74.3711C103.378 73.4682 103.166 72.427 103.166 71.2475C103.166 70.0681 103.353 69.0594 103.744 68.124C104.126 67.1886 104.703 66.4728 105.468 65.9766C106.233 65.4804 107.087 65.2282 108.03 65.2282C108.722 65.2282 109.34 65.3746 109.885 65.6675C110.43 65.9603 110.869 66.3426 111.203 66.8063V61.1123H113.139V76.9822H111.333ZM105.175 71.2475C105.175 72.7198 105.484 73.818 106.102 74.55C106.721 75.2821 107.453 75.64 108.299 75.64C109.145 75.64 109.877 75.2902 110.471 74.5907C111.064 73.8912 111.365 72.8337 111.365 71.4021C111.365 69.8322 111.064 68.6771 110.454 67.9369C109.844 67.1967 109.104 66.8307 108.209 66.8307C107.314 66.8307 106.623 67.1804 106.037 67.8881C105.46 68.5958 105.167 69.7102 105.167 71.2313L105.175 71.2475Z" fill="#F9F9F9"/>
<path d="M124.071 73.2809L126.088 73.5331C125.771 74.7125 125.185 75.6235 124.323 76.2743C123.46 76.925 122.37 77.2504 121.028 77.2504C119.345 77.2504 118.011 76.7298 117.026 75.6968C116.042 74.6637 115.546 73.2077 115.546 71.3368C115.546 69.4659 116.042 67.9042 117.043 66.8305C118.043 65.7568 119.328 65.228 120.923 65.228C122.517 65.228 123.713 65.7486 124.689 66.7979C125.665 67.8472 126.153 69.3195 126.153 71.2148C126.153 71.3287 126.153 71.4995 126.145 71.7354H117.571C117.645 72.9962 118.002 73.9642 118.645 74.6393C119.288 75.3145 120.093 75.648 121.045 75.648C121.76 75.648 122.371 75.4609 122.875 75.0867C123.379 74.7125 123.778 74.1106 124.079 73.289L124.071 73.2809ZM117.669 70.133H124.087C123.997 69.165 123.753 68.441 123.347 67.953C122.728 67.2046 121.923 66.8305 120.931 66.8305C120.036 66.8305 119.279 67.1314 118.678 67.7252C118.067 68.3272 117.726 69.1243 117.661 70.1248L117.669 70.133Z" fill="#F9F9F9"/>
<path d="M137.891 76.9822L133.515 65.4805H135.573L138.037 72.3701C138.306 73.1104 138.55 73.8831 138.777 74.6884C138.948 74.0783 139.192 73.3544 139.501 72.5003L142.056 65.4805H144.057L139.705 76.9822H137.883H137.891Z" fill="#F9F9F9"/>
<path d="M153.655 73.2809L155.672 73.5331C155.355 74.7125 154.769 75.6235 153.907 76.2743C153.044 76.925 151.954 77.2504 150.612 77.2504C148.929 77.2504 147.595 76.7298 146.61 75.6968C145.626 74.6637 145.13 73.2077 145.13 71.3368C145.13 69.4659 145.626 67.9042 146.627 66.8305C147.619 65.7649 148.912 65.228 150.507 65.228C152.101 65.228 153.297 65.7486 154.273 66.7979C155.249 67.8472 155.737 69.3195 155.737 71.2148C155.737 71.3287 155.737 71.4995 155.729 71.7354H147.155C147.229 72.9962 147.586 73.9642 148.229 74.6393C148.872 75.3145 149.677 75.648 150.629 75.648C151.344 75.648 151.954 75.4609 152.459 75.0867C152.963 74.7125 153.362 74.1106 153.663 73.289L153.655 73.2809ZM147.253 70.133H153.671C153.581 69.165 153.337 68.441 152.931 67.953C152.312 67.2046 151.507 66.8305 150.515 66.8305C149.62 66.8305 148.863 67.1314 148.262 67.7252C147.651 68.3272 147.31 69.1243 147.245 70.1248L147.253 70.133Z" fill="#F9F9F9"/>
<path d="M158.112 76.9823V65.4805H159.869V67.1155C160.715 65.8547 161.935 65.2202 163.53 65.2202C164.221 65.2202 164.856 65.3422 165.441 65.5944C166.027 65.8384 166.458 66.1719 166.743 66.5705C167.027 66.9691 167.231 67.4571 167.353 68.0103C167.426 68.3682 167.459 69.0026 167.459 69.9055V76.9742H165.506V69.9787C165.506 69.1816 165.433 68.5878 165.279 68.1973C165.124 67.8069 164.856 67.4897 164.473 67.2538C164.083 67.0179 163.635 66.904 163.115 66.904C162.285 66.904 161.569 67.1643 160.967 67.693C160.365 68.2217 160.065 69.2223 160.065 70.6945V76.9742H158.112V76.9823Z" fill="#F9F9F9"/>
<path d="M174.698 75.2414L174.982 76.9659C174.437 77.0798 173.941 77.1367 173.51 77.1367C172.802 77.1367 172.257 77.0228 171.867 76.8032C171.477 76.5836 171.2 76.2826 171.045 75.9166C170.891 75.5505 170.81 74.7859 170.81 73.6146V67.0015H169.378V65.4885H170.81V62.6415L172.745 61.4702V65.4885H174.706V67.0015H172.745V73.7285C172.745 74.2816 172.778 74.6395 172.851 74.8022C172.916 74.9567 173.03 75.0869 173.185 75.1845C173.339 75.274 173.559 75.3228 173.852 75.3228C174.071 75.3228 174.356 75.2984 174.706 75.2496L174.698 75.2414Z" fill="#F9F9F9"/>
<path d="M184.11 75.5668C183.386 76.1768 182.694 76.6161 182.027 76.8682C181.36 77.1204 180.645 77.2506 179.88 77.2506C178.619 77.2506 177.643 76.9415 176.968 76.3233C176.293 75.7051 175.951 74.916 175.951 73.9562C175.951 73.3949 176.081 72.8825 176.333 72.4107C176.594 71.947 176.927 71.5729 177.342 71.2882C177.757 71.0035 178.221 70.792 178.741 70.6456C179.124 70.548 179.701 70.4503 180.474 70.3527C182.044 70.1657 183.207 69.9379 183.947 69.6776C183.947 69.4092 183.955 69.2384 183.955 69.1651C183.955 68.368 183.768 67.8149 183.402 67.4895C182.906 67.0502 182.166 66.8306 181.181 66.8306C180.262 66.8306 179.587 66.9933 179.148 67.3105C178.709 67.6359 178.391 68.1972 178.18 69.0187L176.277 68.7584C176.447 67.945 176.732 67.2861 177.131 66.7818C177.529 66.2775 178.099 65.8952 178.855 65.6186C179.603 65.3502 180.474 65.2119 181.466 65.2119C182.459 65.2119 183.248 65.3258 183.858 65.5617C184.468 65.7976 184.923 66.0823 185.208 66.432C185.493 66.7818 185.696 67.2211 185.818 67.7579C185.883 68.0914 185.916 68.6852 185.916 69.5556V72.1504C185.916 73.9643 185.956 75.1113 186.038 75.5912C186.119 76.0711 186.282 76.5347 186.534 76.974H184.5C184.297 76.5673 184.167 76.0955 184.11 75.5586V75.5668ZM183.947 71.215C183.239 71.4997 182.182 71.7518 180.767 71.9552C179.969 72.0691 179.4 72.1992 179.067 72.3456C178.733 72.492 178.481 72.7035 178.294 72.9801C178.115 73.2567 178.025 73.5658 178.025 73.9074C178.025 74.428 178.221 74.8591 178.619 75.2089C179.01 75.5586 179.587 75.7295 180.344 75.7295C181.1 75.7295 181.759 75.5668 182.345 75.2333C182.93 74.9079 183.361 74.4524 183.63 73.883C183.841 73.4437 183.947 72.793 183.947 71.9308V71.215Z" fill="#F9F9F9"/>
<path d="M29.5679 22.5319H21.7916V40.0042C21.7916 43.0464 23.573 43.7053 26.3142 43.7053C27.3473 43.7053 28.4616 43.5589 29.5679 43.5589V52.8156C27.2659 52.8888 24.9802 53.1816 22.6782 53.1816C11.9411 53.1816 9.19982 50.0744 9.19982 39.63V22.5238H2.83887V14.3733H9.20796V7.48362L21.7997 2.74951V14.3733H29.576V22.5238L29.5679 22.5319Z" fill="#F9F9F9"/>
<path d="M203.6 13.2672C196.556 13.2672 190.252 16.5372 186.494 21.8325V14.3735H178.717V2.75781L166.126 7.49193V14.3816H159.756V17.9607C156.462 14.1783 150.557 13.2754 144.505 13.2754C140.137 13.2754 135.695 14.0156 132.287 15.9434C128.879 17.9363 126.512 21.1981 126.292 26.2332H138.062C138.656 22.9795 140.877 21.4177 144.358 21.4177C146.953 21.4177 150.435 22.5321 150.435 25.4116C150.435 27.7787 149.247 28.527 147.1 28.9663C139.803 30.4548 129.107 30.0318 125.772 37.133V29.8529C125.772 22.524 124.438 13.2672 112.228 13.2672C107.047 13.2672 103.256 15.4146 100.222 19.4899C98.1479 14.8209 93.853 13.2672 89.0457 13.2672C84.2384 13.2672 80.3095 15.7888 78.0157 19.6363H77.8611V14.3735H65.6436V52.8076H78.2353V34.0745C78.2353 26.225 80.1631 23.6302 84.6858 23.6302C88.0859 23.6302 89.4199 26.4446 89.4199 30.9673V52.8076H102.012V34.0013C102.012 27.7787 102.532 23.6302 107.933 23.6302C111.203 23.6302 113.188 26.0786 113.188 30.2271V52.8076H125.78V47.4879C127.756 51.8478 132.369 53.922 137.851 53.922C142.439 53.922 147.254 52.588 150.508 49.1879C150.654 50.4406 150.809 51.6282 151.248 52.8158H163.905C162.433 49.7817 162.433 46.2271 162.433 42.9652V26.1599C162.433 24.8178 162.294 23.6139 162.042 22.5321H166.126V39.6383C166.126 50.0827 168.867 53.1899 179.604 53.1899C181.906 53.1899 184.192 52.8971 186.494 52.8239V45.9993C190.13 51.1157 196.255 53.9302 203.893 53.9302C212.482 53.9302 220.706 50.0827 223 41.2001H211.222C210.034 44.0146 207.073 45.4218 204.039 45.4218C198.703 45.4218 195.669 41.9403 195.449 36.6856H223.667C224.253 23.6465 217.371 13.2835 203.592 13.2835L203.6 13.2672ZM142.585 46.1539C139.771 46.1539 137.33 44.893 137.33 41.7776C137.33 38.6622 139.697 37.5641 142.512 36.889C145.253 36.1488 148.515 35.9291 150.288 34.8148C150.581 42.7375 148.588 46.1457 142.585 46.1457V46.1539ZM183.24 43.7055C180.499 43.7055 178.725 43.0466 178.725 40.0044V22.5321H186.054C184.045 25.6312 182.866 29.3486 182.866 33.4889C182.866 37.377 183.655 40.769 185.078 43.6241C184.452 43.6648 183.834 43.7055 183.24 43.7055ZM195.457 29.6414C196.198 24.9724 199.159 21.7919 203.608 21.7919C207.822 21.7919 210.864 25.3547 211.091 29.6414H195.466H195.457Z" fill="#F9F9F9"/>
<path d="M68.9458 32.9273C68.9458 20.8887 59.1847 11.1357 47.1461 11.1357C35.1074 11.1357 25.3545 20.8968 25.3545 32.9273C25.3545 44.9578 35.1155 54.7189 47.1461 54.7189C59.1766 54.7189 68.9458 44.9578 68.9458 32.9273Z" fill="#E20D18"/>
<path d="M48.6025 27.8515C48.6025 27.8515 43.9823 25.4275 42.9492 23.8495C45.2187 24.7931 48.4642 25.1428 49.7982 24.6548C51.1241 24.1667 50.3025 19.1317 49.1231 18.0498C50.5547 18.3996 53.0112 22.4423 53.2471 23.7275C54.4347 22.5968 56.5496 21.7102 59.7138 20.9293C55.907 23.9308 54.874 25.6472 55.0692 26.5826C57.4363 26.8348 61.0723 29.698 61.0723 30.8287C58.3717 28.5511 54.7682 29.2913 54.0768 29.7793C54.4185 31.9512 54.0118 35.7417 53.7189 36.4819C52.6371 33.822 52.0026 31.8454 50.8231 30.5114C49.8958 29.4702 46.4307 33.4153 46.1785 34.1067C45.8938 33.2201 47.2278 29.0798 48.6106 27.8515H48.6025Z" fill="#F9F9F9"/>
</svg>
