<svg width="24" height="18" viewBox="0 0 24 18" fill="none" xmlns="http://www.w3.org/2000/svg">
<g id="Group">
<path id="Vector" fill-rule="evenodd" clip-rule="evenodd" d="M8.72727 10.0913C5.81455 10.0913 0 11.5531 0 14.4549V16.6368C0 17.2368 0.490909 17.7277 1.09091 17.7277H16.3636C16.9636 17.7277 17.4545 17.2368 17.4545 16.6368V14.4549C17.4545 11.5531 11.64 10.0913 8.72727 10.0913Z" fill="#F9F9F9"/>
<path id="Vector_2" fill-rule="evenodd" clip-rule="evenodd" d="M17.0947 10.2329C18.5893 11.2475 19.6365 12.622 19.6365 14.4547V17.7275H22.9093C23.5093 17.7275 24.0002 17.2365 24.0002 16.6365V14.4547C24.0002 12.0765 20.1056 10.6693 17.0947 10.2329Z" fill="#F9F9F9"/>
<path id="Vector_3" d="M8.72692 9.00022C11.1369 9.00022 13.0906 7.04656 13.0906 4.63659C13.0906 2.22662 11.1369 0.272949 8.72692 0.272949C6.31695 0.272949 4.36328 2.22662 4.36328 4.63659C4.36328 7.04656 6.31695 9.00022 8.72692 9.00022Z" fill="#F9F9F9"/>
<path id="Vector_4" fill-rule="evenodd" clip-rule="evenodd" d="M15.2732 9.00022C17.6841 9.00022 19.6368 7.04749 19.6368 4.63659C19.6368 2.22568 17.6841 0.272949 15.2732 0.272949C14.7604 0.272949 14.2804 0.38204 13.8223 0.534767C14.7277 1.6584 15.2732 3.08749 15.2732 4.63659C15.2732 6.18568 14.7277 7.61477 13.8223 8.7384C14.2804 8.89113 14.7604 9.00022 15.2732 9.00022Z" fill="#F9F9F9"/>
</g>
</svg>
